<svg width="400" height="400" xmlns="http://www.w3.org/2000/svg" xmlns:svg="http://www.w3.org/2000/svg"><defs><mask id="masque-r" maskUnits="userSpaceOnUse" x="0" y="0" width="400" height="400"><rect x="0" y="0" width="400" height="400" fill="#FFF"/><ellipse cx="200" cy="200" rx="190" ry="125" fill="#000"/><ellipse cx="400" cy="200" rx="150" ry="95" fill="#000"/><ellipse cx="0" cy="200" rx="150" ry="95" fill="#000"/></mask><mask id="masque-j" maskUnits="userSpaceOnUse" x="0" y="0" width="400" height="400"><rect x="0" y="0" width="400" height="400" fill="#FFF"/><ellipse cx="200" cy="200" rx="160" ry="95" fill="#000"/><ellipse cx="400" cy="200" rx="150" ry="75" fill="#000"/><ellipse cx="0" cy="200" rx="150" ry="75" fill="#000"/></mask><mask id="masque-v" maskUnits="userSpaceOnUse" x="0" y="0" width="400" height="400"><rect x="0" y="0" width="400" height="400" fill="#FFF"/><ellipse cx="200" cy="200" rx="130" ry="65" fill="#000"/><ellipse cx="400" cy="200" rx="150" ry="55" fill="#000"/><ellipse cx="0" cy="200" rx="150" ry="55" fill="#000"/></mask><mask id="masque-b" maskUnits="userSpaceOnUse" x="0" y="0" width="400" height="400"><rect x="0" y="0" width="400" height="400" fill="#FFF"/><ellipse cx="200" cy="200" rx="95" ry="35" fill="#000"/><ellipse cx="400" cy="200" rx="150" ry="35" fill="#000"/><ellipse cx="0" cy="200" rx="150" ry="35" fill="#000"/></mask></defs><g id="logo-microalg" stroke-opacity="0" transform="rotate(-45 200 200)"><ellipse id="rouge" fill="#e11d21" cx="200" cy="200" rx="190" ry="150" mask="url(#masque-r)"/><ellipse id="jaune" fill="#fbca04" cx="200" cy="200" rx="160" ry="120" mask="url(#masque-j)"/><ellipse id="vert" fill="#009800" cx="200" cy="200" rx="130" ry="90" mask="url(#masque-v)"/><ellipse id="bleu" fill="#0052cc" cx="200" cy="200" rx="100" ry="60" mask="url(#masque-b)"/></g></svg>